<svg width="900" height="701" viewBox="0 0 900 701" fill="none" xmlns="http://www.w3.org/2000/svg">
<mask id="path-1-inside-1_1_43" fill="white">
<path d="M375.958 130.664H216C168.504 130.664 130 169.168 130 216.664V484.582C130 532.078 168.503 570.582 216 570.582H375.668L374.447 700.582H216C96.7065 700.582 0 603.876 0 484.582V216.664C0.000143542 97.8365 95.9528 1.42015 214.604 0.668945L216 0.664062H377.179L375.958 130.664ZM685.396 0.668945C804.047 1.42015 900 97.8365 900 216.664V484.582C900 603.876 803.294 700.582 684 700.582H497.668L498.89 570.582H684C731.496 570.582 770 532.079 770 484.582V412.231H318.958C284.933 412.231 257.351 384.648 257.351 350.623C257.351 316.598 284.933 289.016 318.958 289.016H770V216.664C770 169.168 731.496 130.664 684 130.664H499.179L500.4 0.664062H684L685.396 0.668945Z"/>
</mask>
<path d="M375.958 130.664H216C168.504 130.664 130 169.168 130 216.664V484.582C130 532.078 168.503 570.582 216 570.582H375.668L374.447 700.582H216C96.7065 700.582 0 603.876 0 484.582V216.664C0.000143542 97.8365 95.9528 1.42015 214.604 0.668945L216 0.664062H377.179L375.958 130.664ZM685.396 0.668945C804.047 1.42015 900 97.8365 900 216.664V484.582C900 603.876 803.294 700.582 684 700.582H497.668L498.89 570.582H684C731.496 570.582 770 532.079 770 484.582V412.231H318.958C284.933 412.231 257.351 384.648 257.351 350.623C257.351 316.598 284.933 289.016 318.958 289.016H770V216.664C770 169.168 731.496 130.664 684 130.664H499.179L500.4 0.664062H684L685.396 0.668945Z" fill="#155dfc"/>
<path d="M375.958 130.664V131.664H376.949L376.958 130.673L375.958 130.664ZM130 216.664L129 216.664V216.664H130ZM216 570.582L216 571.582H216V570.582ZM375.668 570.582L376.668 570.591L376.677 569.582H375.668V570.582ZM374.447 700.582V701.582H375.438L375.447 700.591L374.447 700.582ZM216 700.582L216 701.582H216V700.582ZM0 216.664L-1 216.664V216.664H0ZM214.604 0.668945L214.6 -0.331053L214.597 -0.331035L214.604 0.668945ZM216 0.664062L216 -0.335944L215.997 -0.335931L216 0.664062ZM377.179 0.664062L378.179 0.673452L378.188 -0.335938H377.179V0.664062ZM685.396 0.668945L685.403 -0.331039L685.4 -0.331049L685.396 0.668945ZM900 216.664L901 216.664L901 216.664L900 216.664ZM497.668 700.582L496.668 700.573L496.659 701.582H497.668V700.582ZM498.89 570.582V569.582H497.899L497.89 570.573L498.89 570.582ZM770 412.231H771V411.231H770V412.231ZM318.958 412.231L318.958 413.231H318.958V412.231ZM257.351 350.623L256.351 350.623V350.623H257.351ZM318.958 289.016L318.958 288.016L318.958 288.016L318.958 289.016ZM770 289.016V290.016H771V289.016H770ZM770 216.664L771 216.664L771 216.664L770 216.664ZM684 130.664L684 129.664H684V130.664ZM499.179 130.664L498.179 130.655L498.169 131.664H499.179V130.664ZM500.4 0.664062V-0.335938H499.41L499.4 0.654665L500.4 0.664062ZM684 0.664062L684.003 -0.335938H684V0.664062ZM375.958 130.664V129.664H216V130.664V131.664H375.958V130.664ZM216 130.664V129.664C167.951 129.664 129 168.615 129 216.664L130 216.664L131 216.664C131 169.72 169.056 131.664 216 131.664V130.664ZM130 216.664H129V484.582H130H131V216.664H130ZM130 484.582H129C129 532.631 167.951 571.582 216 571.582L216 570.582L216 569.582C169.056 569.582 131 531.526 131 484.582H130ZM216 570.582V571.582H375.668V570.582V569.582H216V570.582ZM375.668 570.582L374.668 570.573L373.447 700.573L374.447 700.582L375.447 700.591L376.668 570.591L375.668 570.582ZM374.447 700.582V699.582H216V700.582V701.582H374.447V700.582ZM216 700.582L216 699.582C97.2588 699.582 1 603.323 1 484.582H0H-1C-1 604.428 96.1542 701.582 216 701.582L216 700.582ZM0 484.582H1V216.664H0H-1V484.582H0ZM0 216.664L1 216.664C1.00014 98.3867 96.5086 2.41665 214.61 1.66893L214.604 0.668945L214.597 -0.331035C95.397 0.423645 -0.999856 97.2864 -1 216.664L0 216.664ZM214.604 0.668945L214.607 1.66894L216.003 1.66406L216 0.664062L215.997 -0.335931L214.6 -0.331049L214.604 0.668945ZM216 0.664062V1.66406H377.179V0.664062V-0.335938H216V0.664062ZM377.179 0.664062L376.179 0.654673L374.958 130.655L375.958 130.664L376.958 130.673L378.179 0.673452L377.179 0.664062ZM685.396 0.668945L685.39 1.66893C803.491 2.41665 899 98.3867 899 216.664L900 216.664L901 216.664C901 97.2863 804.603 0.423652 685.403 -0.331035L685.396 0.668945ZM900 216.664H899V484.582H900H901V216.664H900ZM900 484.582H899C899 603.323 802.741 699.582 684 699.582V700.582V701.582C803.846 701.582 901 604.428 901 484.582H900ZM684 700.582V699.582H497.668V700.582V701.582H684V700.582ZM497.668 700.582L498.668 700.591L499.89 570.591L498.89 570.582L497.89 570.573L496.668 700.573L497.668 700.582ZM498.89 570.582V571.582H684V570.582V569.582H498.89V570.582ZM684 570.582V571.582C732.049 571.582 771 532.631 771 484.582H770H769C769 531.526 730.944 569.582 684 569.582V570.582ZM770 484.582H771V412.231H770H769V484.582H770ZM770 412.231V411.231H318.958V412.231V413.231H770V412.231ZM318.958 412.231L318.958 411.231C285.485 411.231 258.351 384.096 258.351 350.623H257.351H256.351C256.351 385.2 284.381 413.231 318.958 413.231L318.958 412.231ZM257.351 350.623L258.351 350.623C258.351 317.15 285.485 290.016 318.958 290.016L318.958 289.016L318.958 288.016C284.381 288.016 256.351 316.046 256.351 350.623L257.351 350.623ZM318.958 289.016V290.016H770V289.016V288.016H318.958V289.016ZM770 289.016H771V216.664H770H769V289.016H770ZM770 216.664L771 216.664C771 168.615 732.049 129.664 684 129.664L684 130.664L684 131.664C730.944 131.664 769 169.72 769 216.664L770 216.664ZM684 130.664V129.664H499.179V130.664V131.664H684V130.664ZM499.179 130.664L500.179 130.673L501.4 0.67346L500.4 0.664062L499.4 0.654665L498.179 130.655L499.179 130.664ZM500.4 0.664062V1.66406H684V0.664062V-0.335938H500.4V0.664062ZM684 0.664062L683.997 1.66406L685.393 1.66894L685.396 0.668945L685.4 -0.331049L684.003 -0.335931L684 0.664062Z" fill="black" mask="url(#path-1-inside-1_1_43)"/>
</svg>
